<?xml version="1.0" standalone="no"?>
<svg version="1.0" xmlns="http://www.w3.org/2000/svg"
 width="64.000000pt" height="64.000000pt" viewBox="0 0 64.000000 64.000000"
 preserveAspectRatio="xMidYMid meet" fill="rgba(255, 255, 255, 0.3)">

<g transform="translate(0.000000,64.000000) scale(0.100000,-0.100000)"
fill="rgba(255, 255, 255, 0.3)" stroke="none">
<path d="M302 568 c-8 -8 -12 -47 -12 -109 l0 -96 -25 5 c-20 3 -25 0 -25 -15
0 -22 59 -83 81 -83 21 0 79 62 79 84 0 14 -6 17 -25 14 l-25 -5 0 96 c0 89
-8 121 -30 121 -3 0 -11 -5 -18 -12z"/>
<path d="M126 469 c-26 -20 -26 -22 -26 -149 0 -175 -7 -170 220 -170 227 0
220 -5 220 170 0 127 0 129 -26 149 -20 15 -41 21 -80 21 l-54 0 0 -35 c0 -35
0 -35 45 -35 l45 0 0 -100 0 -100 -150 0 -150 0 0 100 0 100 45 0 c45 0 45 0
45 35 l0 35 -54 0 c-39 0 -60 -6 -80 -21z"/>
</g>
</svg>
